<svg xmlns="http://www.w3.org/2000/svg" width="560" height="560" viewBox="0 0 560 560" role="img" aria-labelledby="title desc">
  <title id="title">KBNvK retro-illegal exception</title>
  <desc id="desc">White king on c2, white bishop on b1, white knight on c4, black king on a2, black to move.</desc>
  <rect width="560" height="560" fill="#f6f3ee"/>
  <g transform="translate(56 32)">
    <g>
      <rect x="0" y="0" width="448" height="448" fill="#f0d9b5"/>
      <g fill="#b58863">
        <rect x="56" y="0" width="56" height="56"/>
        <rect x="168" y="0" width="56" height="56"/>
        <rect x="280" y="0" width="56" height="56"/>
        <rect x="392" y="0" width="56" height="56"/>
        <rect x="0" y="56" width="56" height="56"/>
        <rect x="112" y="56" width="56" height="56"/>
        <rect x="224" y="56" width="56" height="56"/>
        <rect x="336" y="56" width="56" height="56"/>
        <rect x="56" y="112" width="56" height="56"/>
        <rect x="168" y="112" width="56" height="56"/>
        <rect x="280" y="112" width="56" height="56"/>
        <rect x="392" y="112" width="56" height="56"/>
        <rect x="0" y="168" width="56" height="56"/>
        <rect x="112" y="168" width="56" height="56"/>
        <rect x="224" y="168" width="56" height="56"/>
        <rect x="336" y="168" width="56" height="56"/>
        <rect x="56" y="224" width="56" height="56"/>
        <rect x="168" y="224" width="56" height="56"/>
        <rect x="280" y="224" width="56" height="56"/>
        <rect x="392" y="224" width="56" height="56"/>
        <rect x="0" y="280" width="56" height="56"/>
        <rect x="112" y="280" width="56" height="56"/>
        <rect x="224" y="280" width="56" height="56"/>
        <rect x="336" y="280" width="56" height="56"/>
        <rect x="56" y="336" width="56" height="56"/>
        <rect x="168" y="336" width="56" height="56"/>
        <rect x="280" y="336" width="56" height="56"/>
        <rect x="392" y="336" width="56" height="56"/>
        <rect x="0" y="392" width="56" height="56"/>
        <rect x="112" y="392" width="56" height="56"/>
        <rect x="224" y="392" width="56" height="56"/>
        <rect x="336" y="392" width="56" height="56"/>
      </g>
      <rect x="0" y="0" width="448" height="448" fill="none" stroke="#2f2a25" stroke-width="3"/>
    </g>
    <g font-family="Arial, sans-serif" font-size="18" fill="#2f2a25" text-anchor="middle">
      <text x="28" y="472">a</text>
      <text x="84" y="472">b</text>
      <text x="140" y="472">c</text>
      <text x="196" y="472">d</text>
      <text x="252" y="472">e</text>
      <text x="308" y="472">f</text>
      <text x="364" y="472">g</text>
      <text x="420" y="472">h</text>
    </g>
    <g font-family="Arial, sans-serif" font-size="18" fill="#2f2a25" text-anchor="middle">
      <text x="-20" y="34">8</text>
      <text x="-20" y="90">7</text>
      <text x="-20" y="146">6</text>
      <text x="-20" y="202">5</text>
      <text x="-20" y="258">4</text>
      <text x="-20" y="314">3</text>
      <text x="-20" y="370">2</text>
      <text x="-20" y="426">1</text>
    </g>
    <g font-family="Arial, sans-serif" font-weight="700" text-anchor="middle">
      <circle cx="140" cy="252" r="22" fill="#f8f8f8" stroke="#2f2a25" stroke-width="2"/>
      <text x="140" y="261" font-size="28" fill="#2f2a25">N</text>
      <circle cx="28" cy="364" r="22" fill="#2f2a25" stroke="#f8f8f8" stroke-width="2"/>
      <text x="28" y="373" font-size="28" fill="#f8f8f8">k</text>
      <circle cx="140" cy="364" r="22" fill="#f8f8f8" stroke="#2f2a25" stroke-width="2"/>
      <text x="140" y="373" font-size="28" fill="#2f2a25">K</text>
      <circle cx="84" cy="420" r="22" fill="#f8f8f8" stroke="#2f2a25" stroke-width="2"/>
      <text x="84" y="429" font-size="28" fill="#2f2a25">B</text>
    </g>
    <line x1="84" y1="420" x2="28" y2="364" stroke="#be2a2a" stroke-width="5" stroke-linecap="round" opacity="0.85"/>
    <text x="224" y="510" font-family="Arial, sans-serif" font-size="20" fill="#2f2a25" text-anchor="middle">
      KBNvK(light bishop), black to move
    </text>
  </g>
</svg>
